<svg xmlns="http://www.w3.org/2000/svg" viewBox="0 0 596.42 76.19"><defs><style>.cls-1{fill:#fff;}.cls-2,.cls-4{fill:#c49a6c;}.cls-3{fill:#a7a9ac;}.cls-4{stroke:#231f20;stroke-miterlimit:10;stroke-width:0.25px;}</style></defs><g id="Layer_2" data-name="Layer 2"><g id="Layer_1-2" data-name="Layer 1"><path class="cls-1" d="M0,20.92V16.45A.92.92,0,0,1,.1,16a1.8,1.8,0,0,1,0-.44A2.92,2.92,0,0,0,.2,15H58.88v5.89Zm0,7.85V22.88H14.72v5.89Zm0,7.85V30.73H14.72v5.89Zm0,7.85V38.58H14.72v5.89Zm0,7.85V46.44H14.72v5.88Zm0,7.85V54.29H14.72v5.88ZM.2,68a2.92,2.92,0,0,0-.05-.54A1.88,1.88,0,0,1,.1,67,.89.89,0,0,1,0,66.6V62.14H58.88V68Zm.59-55A9.54,9.54,0,0,1,4.32,8.65,9.82,9.82,0,0,1,9.81,7.18H58.88v5.89Zm9,62.81a9.82,9.82,0,0,1-5.49-1.47A9.64,9.64,0,0,1,.79,70H58.88v5.89ZM24.54,36.62V30.73H58.88v5.89Zm0,7.85V38.58H58.88v5.89Zm19.62,7.85V46.44H58.88v5.88Zm0,7.85V54.29H58.88v5.88Z"/><path class="cls-1" d="M68,13.07,63.69,7.18H82.34l4.32,5.89Zm5.69,7.85L69.38,15H88l4.32,5.89Zm43,7.85H79.4l-4.23-5.89H93.82L98,28.77l4.22-5.89h18.65Zm-5.79,7.85H85.19l-4.32-5.89h34.35Zm-5.5,7.85H90.68l-4.12-5.89h23ZM90.68,52.32V46.44H105.4v5.88Zm0,7.85V54.29H105.4v5.88Zm0,7.86V62.14H105.4V68Zm0,7.85V70H105.4v5.89Zm31.7-55H103.73L108.05,15H126.7Zm5.69-7.85H109.43l4.31-5.89h18.65Z"/><path class="cls-1" d="M137.4,13.07V7.18h14.72L155,13.07Zm0,7.85V15h18.54l2.85,5.89Zm0,7.85V22.88h22.37l2.85,5.89Zm0,7.85V30.73h26.2l2.84,5.89Zm16.19,7.85-1.47-2.94v2.94H137.4V38.58h29.93l2.94,5.89ZM137.4,52.32V46.44h14.72v5.88Zm0,7.85V54.29h14.72v5.88Zm0,7.86V62.14h14.72V68Zm0,7.85V70h14.72v5.89Zm19.92-23.56-2.85-5.88h16.69L174,52.32Zm30.91,7.85H161.15l-2.85-5.88h32.78ZM184.4,68H165l-2.84-5.89h25.12Zm-3.82,7.85H168.8L166,70h17.47Zm11.48-23.56H175.38l2.84-5.88h16.69Zm5.2-7.85V41.53l-1.47,2.94H179.1l3-5.89H212v5.89Zm-14.33-7.85,2.85-5.89H212v5.89Zm3.83-7.85,2.85-5.89H212v5.89Zm3.83-7.85L193.43,15H212v5.89Zm3.82-7.85,2.85-5.89H212v5.89Zm2.85,39.25V46.44H212v5.88Zm0,7.85V54.29H212v5.88Zm0,7.86V62.14H212V68Zm0,7.85V70H212v5.89Z"/><path class="cls-2" d="M277.38,75.88,271.1,60.17H243.43l-6.28,15.71H220.46l27.48-68.7h18.65l27.48,68.7ZM257.26,25.53l-8.34,20.91h16.69Z"/><path class="cls-2" d="M447.59,73a9.43,9.43,0,0,1-6.91,2.9H401.42a9.9,9.9,0,0,1-9.82-9.82V17a9.45,9.45,0,0,1,2.9-6.92,9.48,9.48,0,0,1,6.92-2.89h39.26a9.46,9.46,0,0,1,6.91,2.89,9.45,9.45,0,0,1,2.9,6.92V66.06A9.44,9.44,0,0,1,447.59,73ZM435.77,20.92H406.33V62.14h29.44Z"/><path class="cls-2" d="M469.33,75.88a9.88,9.88,0,0,1-9.81-9.82V7.18h14.72v55H513.5V75.88Z"/><path class="cls-2" d="M518.7,75.88V7.18h14.72v68.7Z"/><path class="cls-2" d="M552.26,75.88a9.88,9.88,0,0,1-9.81-9.82V17a9.44,9.44,0,0,1,2.89-6.92,9.48,9.48,0,0,1,6.92-2.89h44.16V20.92H557.17V62.14h39.25V75.88Z"/><rect class="cls-1" x="291.83" y="32.84" width="91.62" height="10.56"/><rect class="cls-3" x="295.73" y="30.8" width="4.41" height="15.32"/><rect class="cls-3" x="374.31" y="30.8" width="4.41" height="15.32"/><rect class="cls-4" x="300.14" y="13.21" width="6.1" height="49.77" rx="1.87"/><rect class="cls-4" x="306.95" y="7.21" width="6.1" height="61.76" rx="1.87" transform="translate(619.99 76.19) rotate(180)"/><rect class="cls-4" x="313.75" y="0.13" width="6.1" height="75.94" rx="1.87" transform="translate(633.61 76.19) rotate(180)"/><rect class="cls-4" x="368.21" y="13.21" width="6.1" height="49.77" rx="1.87" transform="translate(742.53 76.19) rotate(180)"/><rect class="cls-4" x="361.4" y="7.21" width="6.1" height="61.76" rx="1.87"/><rect class="cls-4" x="354.59" y="0.13" width="6.1" height="75.94" rx="1.87"/></g></g></svg>